<?xml version="1.0" ?><svg enable-background="new 0 0 387.71 91.061" id="Layer_1" version="1.1" viewBox="0 0 387.71 91.061" xml:space="preserve" xmlns="http://www.w3.org/2000/svg" xmlns:xlink="http://www.w3.org/1999/xlink"><g id="Layer_1_1_"/><g id="Layer_2"><g><path d="M224.429,36.097h-15.2v1.6c4.7,0,5.5,1,5.5,7v10.8c0,6-0.8,7.1-5.5,7.1c-3.6-0.5-6.1-2.5-9.5-6.2l-3.9-4.2    c5.2-0.9,8-4.2,8-8c0-4.7-4-8.2-11.4-8.2h-14.9v1.6c4.7,0,5.5,1,5.5,7v10.8c0,6-0.8,7.1-5.5,7.1v1.6h16.8v-1.6    c-4.7,0-5.5-1.1-5.5-7.1v-3h1.4l9.4,11.8h24.6c12.1,0,17.4-6.4,17.4-14.1C241.729,42.497,236.529,36.097,224.429,36.097z     M188.929,49.897v-11.2h3.5c3.8,0,5.5,2.6,5.5,5.7c0,3-1.7,5.6-5.5,5.6h-3.5V49.897z M224.629,61.697h-0.6c-3,0-3.5-0.8-3.5-4.7    v-18.3c0,0,3.7,0,4.1,0c8.8,0,10.4,6.4,10.4,11.4C235.029,55.197,233.429,61.697,224.629,61.697z" fill="#00749A"/><path d="M130.429,52.997l5.8-17.3c1.7-5,0.9-6.4-4.5-6.4v-1.7h15.9v1.7c-5.3,0-6.6,1.3-8.7,7.4l-9.6,28.9h-1.1    l-8.6-26.5l-8.8,26.5h-1.1l-9.4-28.8c-2-6.2-3.4-7.4-8.3-7.4v-1.7h18.8v1.7c-5,0-6.3,1.2-4.6,6.4l5.7,17.3l8.5-25.4h1.6    L130.429,52.997z" fill="#00749A"/><path d="M159.229,65.397c-9.3,0-16.9-6.9-16.9-15.2s7.6-15.2,16.9-15.2c9.3,0,16.9,6.9,16.9,15.2    S168.529,65.397,159.229,65.397z M159.229,37.597c-7.8,0-10.5,7-10.5,12.5c0,5.6,2.7,12.5,10.5,12.5c7.9,0,10.6-6.9,10.6-12.5    C169.829,44.697,167.129,37.597,159.229,37.597z" fill="#00749A"/><path d="M262.629,62.597v1.7h-19.4v-1.7c5.7,0,6.7-1.4,6.7-9.9v-13.5c0-8.5-1-9.8-6.7-9.8v-1.7h17.5    c8.7,0,13.5,4.5,13.5,10.5c0,5.8-4.8,10.4-13.5,10.4h-4.8v4.1C255.929,61.197,257.029,62.597,262.629,62.597z M260.829,30.697    h-4.8v14.7h4.8c4.7,0,6.9-3.3,6.9-7.3S265.529,30.697,260.829,30.697z" fill="#464342"/><path d="M332.429,56.297l-0.4,1.5c-0.8,2.8-1.7,3.8-7.7,3.8h-1.2c-4.4,0-5.2-1-5.2-7v-3.8c6.6,0,7.1,0.6,7.1,5h1.6    v-12.7h-1.6c0,4.4-0.5,5-7.1,5v-9.5h4.7c6,0,6.9,1,7.7,3.8l0.4,1.6h1.4l-0.6-8h-24.9v1.6c4.7,0,5.5,1,5.5,7v10.8    c0,5.5-0.6,6.9-4.4,7.1c-3.6-0.5-6-2.5-9.3-6.1l-3.9-4.2c5.2-0.9,8-4.2,8-8c0-4.7-4-8.2-11.4-8.2h-14.9v1.6c4.7,0,5.5,1,5.5,7    v10.8c0,6-0.8,7.1-5.5,7.1v1.6h16.8v-1.6c-4.7,0-5.5-1.1-5.5-7.1v-3h1.4l9.4,11.8h34.9l0.5-8h-1.3V56.297z M287.629,49.897v-11.2    h3.5c3.8,0,5.5,2.6,5.5,5.7c0,3-1.7,5.6-5.5,5.6h-3.5V49.897z" fill="#464342"/><path d="M349.629,65.397c-3.4,0-6.3-1.8-7.6-2.9c-0.4,0.4-1.2,1.7-1.4,2.9h-1.6v-11.7h1.7c0.7,5.6,4.6,8.9,9.6,8.9    c2.7,0,4.9-1.5,4.9-4.1c0-2.2-1.9-3.9-5.4-5.5l-4.8-2.3c-3.4-1.6-5.9-4.4-5.9-8.1c0-4.1,3.8-7.5,9.1-7.5c2.8,0,5.2,1,6.6,2.2    c0.4-0.3,0.8-1.3,1.1-2.3h1.6v10h-1.8c-0.6-4-2.8-7.3-7.3-7.3c-2.4,0-4.6,1.4-4.6,3.5c0,2.2,1.8,3.4,5.8,5.2l4.7,2.3    c4.1,1.9,5.7,5.1,5.7,7.6C360.029,61.697,355.329,65.397,349.629,65.397z" fill="#464342"/><path d="M375.729,65.397c-3.4,0-6.3-1.8-7.6-2.9c-0.4,0.4-1.2,1.7-1.4,2.9h-1.6v-11.7h1.7c0.7,5.6,4.6,8.9,9.6,8.9    c2.7,0,4.9-1.5,4.9-4.1c0-2.2-1.9-3.9-5.4-5.5l-4.8-2.3c-3.4-1.6-5.9-4.4-5.9-8.1c0-4.1,3.8-7.5,9.1-7.5c2.8,0,5.2,1,6.6,2.2    c0.4-0.3,0.8-1.3,1.1-2.3h1.6v10h-1.8c-0.6-4-2.8-7.3-7.3-7.3c-2.4,0-4.6,1.4-4.6,3.5c0,2.2,1.8,3.4,5.8,5.2l4.7,2.3    c4.1,1.9,5.7,5.1,5.7,7.6C386.029,61.697,381.429,65.397,375.729,65.397z" fill="#464342"/><g><path d="M7.429,45.397c0,14.8,8.6,27.6,21.1,33.7l-17.9-49C8.529,34.797,7.429,39.997,7.429,45.397z" fill="#464342"/><path d="M70.129,43.497c0-4.6-1.7-7.8-3.1-10.3c-1.9-3.1-3.7-5.7-3.7-8.8c0-3.4,2.6-6.6,6.3-6.6     c0.2,0,0.3,0,0.5,0c-6.7-6.1-15.5-9.8-25.3-9.8c-13.1,0-24.6,6.7-31.3,16.8c0.9,0,1.7,0,2.4,0c3.9,0,10-0.5,10-0.5     c2-0.1,2.3,2.8,0.2,3.1c0,0-2,0.2-4.3,0.4l13.6,40.6l8.3-24.6l-5.8-16c-2-0.1-3.9-0.4-3.9-0.4c-2-0.1-1.8-3.2,0.2-3.1     c0,0,6.2,0.5,9.9,0.5c3.9,0,10-0.5,10-0.5c2-0.1,2.3,2.8,0.2,3.1c0,0-2,0.2-4.3,0.4l13.5,40.3l3.7-12.5     C68.929,50.397,70.129,46.697,70.129,43.497z" fill="#464342"/><path d="M45.529,48.697l-11.3,32.6c3.4,1,6.9,1.5,10.6,1.5c4.4,0,8.5-0.8,12.4-2.1c-0.1-0.2-0.2-0.3-0.3-0.5     L45.529,48.697z" fill="#464342"/><path d="M77.729,27.397c0.2,1.2,0.3,2.5,0.3,3.9c0,3.8-0.7,8.1-2.8,13.4l-11.6,33.1c11.1-6.5,18.6-18.6,18.6-32.4     C82.329,38.897,80.629,32.797,77.729,27.397z" fill="#464342"/><path d="M44.829,1.697c-24.1,0-43.7,19.6-43.7,43.7s19.6,43.7,43.7,43.7s43.7-19.6,43.7-43.7     S68.929,1.697,44.829,1.697z M44.829,87.097c-23,0-41.7-18.7-41.7-41.7s18.7-41.7,41.7-41.7s41.7,18.7,41.7,41.7     S67.829,87.097,44.829,87.097z" fill="#464342"/></g></g></g></svg>